<?xml version="1.0" encoding="UTF-8" standalone="no"?>
<svg
   xmlns:dc="http://purl.org/dc/elements/1.1/"
   xmlns:cc="http://creativecommons.org/ns#"
   xmlns:rdf="http://www.w3.org/1999/02/22-rdf-syntax-ns#"
   xmlns:svg="http://www.w3.org/2000/svg"
   xmlns="http://www.w3.org/2000/svg"
   xmlns:sodipodi="http://sodipodi.sourceforge.net/DTD/sodipodi-0.dtd"
   xmlns:inkscape="http://www.inkscape.org/namespaces/inkscape"
   sodipodi:docname="pinya_icona1.svg"
   inkscape:version="1.0 (4035a4f, 2020-05-01)"
   id="svg2359"
   version="1.1"
   viewBox="0 0 100 100"
   height="100mm"
   width="100mm">
  <defs
     id="defs2353" />
  <sodipodi:namedview
     inkscape:window-maximized="0"
     inkscape:window-y="22"
     inkscape:window-x="0"
     inkscape:window-height="1006"
     inkscape:window-width="1609"
     showgrid="false"
     inkscape:document-rotation="0"
     inkscape:current-layer="layer1"
     inkscape:document-units="mm"
     inkscape:cy="188.97638"
     inkscape:cx="188.97638"
     inkscape:zoom="2.111375"
     inkscape:pageshadow="2"
     inkscape:pageopacity="0.0"
     borderopacity="1.0"
     bordercolor="#666666"
     pagecolor="#ffffff"
     id="base" />
  <metadata
     id="metadata2356">
    <rdf:RDF>
      <cc:Work
         rdf:about="">
        <dc:format>image/svg+xml</dc:format>
        <dc:type
           rdf:resource="http://purl.org/dc/dcmitype/StillImage" />
        <dc:title></dc:title>
      </cc:Work>
    </rdf:RDF>
  </metadata>
  <g
     id="layer1"
     inkscape:groupmode="layer"
     inkscape:label="Capa 1">
    <path
       id="path3222"
       d="m 50.000258,64.679807 c -1.727899,0 -3.196167,1.09798 -3.755327,2.63292 l -7.97729,19.23965 c -0.197551,0.47343 -0.307475,0.99268 -0.307475,1.53737 0,1.90006 1.325901,3.48721 3.102136,3.89537 5.012979,1.12642 8.937956,1.01493 8.937956,1.01493 0,0 3.822149,0.13681 8.83512,-0.9896 1.77624,-0.40817 3.204456,-2.02064 3.204456,-3.9207 0,-0.54469 -0.109757,-1.06394 -0.306959,-1.53737 l -7.977807,-19.23965 c -0.559149,-1.53494 -2.026549,-2.63292 -3.75481,-2.63292 z"
       style="fill:#000000;fill-opacity:1;fill-rule:nonzero;stroke:none;stroke-width:0.352777" />
    <path
       id="path3220"
       d="m 63.725125,59.798457 c -1.000257,0.0156 -1.995217,0.4041 -2.759006,1.16789 -1.221819,1.22182 -1.483738,3.03577 -0.79375,4.51652 l 7.963855,19.24585 c 0.195069,0.47446 0.484563,0.91916 0.869715,1.30431 1.343548,1.34355 3.403409,1.52806 4.948017,0.56069 4.34121,-2.74821 7.037298,-5.60224 7.037298,-5.60224 0,0 2.79977,-2.60669 5.547982,-6.9479 0.96738,-1.5446 0.837628,-3.69438 -0.505913,-5.03793 -0.385159,-0.38515 -0.830114,-0.6744 -1.304314,-0.86972 l -19.24637,-7.96333 c -0.555282,-0.25875 -1.157362,-0.3835 -1.757514,-0.37414 z"
       style="fill:#000000;fill-opacity:1;fill-rule:nonzero;stroke:none;stroke-width:0.352777" />
    <path
       id="path3218"
       d="m 36.274877,59.797937 c -0.600249,-0.009 -1.202756,0.11591 -1.758034,0.37466 l -19.245337,7.96333 c -0.474453,0.19507 -0.919157,0.48456 -1.304311,0.86972 -1.343546,1.34354 -1.528061,3.40341 -0.560689,4.94802 2.748206,4.34121 5.601724,7.03781 5.601724,7.03781 0,0 0.164153,0.17444 0.475424,0.48007 0.936435,0.91621 3.216061,3.00676 6.471955,5.06791 1.5446,0.96738 3.694914,0.83712 5.038452,-0.50643 0.385159,-0.38515 0.674913,-0.83011 0.870231,-1.30431 l 7.963339,-19.24585 c 0.68998,-1.48075 0.42832,-3.29498 -0.79375,-4.51704 -0.76363,-0.76364 -1.758593,-1.15235 -2.759004,-1.16789 z"
       style="fill:#000000;fill-opacity:1;fill-rule:nonzero;stroke:none;stroke-width:0.352777" />
    <path
       id="path3216"
       d="m 88.090046,37.959877 c -0.54469,0 -1.063945,0.10975 -1.537375,0.30695 l -19.239653,7.97833 c -1.53493,0.55915 -2.632914,2.02655 -2.632914,3.75481 0,1.7279 1.097984,3.19565 2.632914,3.75481 l 19.239653,7.97781 c 0.47343,0.19754 0.992685,0.30747 1.537375,0.30747 1.90006,0 3.487208,-1.32642 3.895368,-3.10265 1.126421,-5.01298 1.014409,-8.93744 1.014409,-8.93744 0,0 0.136816,-3.82215 -0.989605,-8.83512 -0.408159,-1.77624 -2.020112,-3.20497 -3.920172,-3.20497 z"
       style="fill:#000000;fill-opacity:1;fill-rule:nonzero;stroke:none;stroke-width:0.352777" />
    <path
       id="path3214"
       d="m 11.909957,37.959877 c -1.900063,0 -3.487206,1.32641 -3.895371,3.10265 -1.1264184,5.01297 -1.0144044,8.93744 -1.0144097,8.93744 0,0 -0.1368134,3.82266 0.9896052,8.83563 0.4081645,1.77624 2.0201125,3.20446 3.9201755,3.20446 0.544687,0 1.063945,-0.10976 1.537372,-0.30696 l 19.240169,-7.97832 c 1.534937,-0.55916 2.632397,-2.02655 2.632397,-3.75481 0,-1.72791 -1.09746,-3.19566 -2.632397,-3.75481 l -19.240169,-7.97781 c -0.473427,-0.19756 -0.992685,-0.30747 -1.537372,-0.30747 z"
       style="fill:#000000;fill-opacity:1;fill-rule:nonzero;stroke:none;stroke-width:0.352777" />
    <path
       id="path3212"
       d="m 71.787165,12.831057 c -1.014828,0.009 -2.025478,0.38061 -2.781226,1.13636 -0.385152,0.38515 -0.674902,0.82959 -0.870231,1.3038 l -7.963339,19.24585 c -0.689988,1.48074 -0.428826,3.29445 0.793234,4.51652 1.221809,1.22181 3.036803,1.48373 4.517554,0.79375 l 19.244821,-7.96334 c 0.474458,-0.19507 0.919667,-0.48456 1.304829,-0.86971 1.343539,-1.34355 1.528059,-3.40342 0.560689,-4.94802 -2.748221,-4.34121 -5.602242,-7.03781 -5.602242,-7.03781 0,0 -2.60618,-2.79926 -6.947379,-5.54747 -0.675767,-0.42322 -1.4674,-0.63659 -2.25671,-0.62993 z"
       style="fill:#000000;fill-opacity:1;fill-rule:nonzero;stroke:none;stroke-width:0.352777" />
    <path
       id="path3210"
       d="m 28.266061,12.798457 c -0.76995,-0.0183 -1.544772,0.18449 -2.220534,0.60771 -4.341211,2.74822 -7.036781,5.60276 -7.036781,5.60276 0,0 -2.799257,2.60566 -5.547463,6.94687 -0.96738,1.5446 -0.83815,3.69491 0.505394,5.03845 0.385154,0.38516 0.830106,0.67438 1.304313,0.86971 l 19.245853,7.96334 c 1.48073,0.68998 3.294967,0.42831 4.517038,-0.79375 1.221811,-1.22181 1.483204,-3.03578 0.793234,-4.51652 l -7.963339,-19.24585 c -0.19507,-0.47446 -0.484564,-0.91916 -0.869715,-1.30432 -0.755745,-0.75574 -1.738061,-1.14487 -2.728,-1.1684 z"
       style="fill:#000000;fill-opacity:1;fill-rule:nonzero;stroke:none;stroke-width:0.352777" />
    <path
       id="path2128-0"
       d="m 49.324332,6.9957072 v 5.2e-4 c -1.310021,0.0143 -4.399984,0.14841 -8.15971,0.99322 -1.776235,0.4081598 -3.204456,2.0206298 -3.204456,3.9206898 0,0.54469 0.109757,1.06395 0.306959,1.53738 l 7.977806,19.23965 c 0.55916,1.53493 2.027069,2.63291 3.755327,2.63291 1.727912,0 3.195661,-1.09798 3.75481,-2.63291 l 7.977807,-19.23965 c 0.197551,-0.47343 0.306959,-0.99269 0.306959,-1.53738 0,-1.90006 -1.325896,-3.4872 -3.102136,-3.89537 -5.012971,-1.1264198 -8.93744,-1.0149198 -8.93744,-1.0149198 0,0 -0.239258,-0.008 -0.675926,-0.004 z"
       style="fill:#000000;fill-opacity:1;fill-rule:nonzero;stroke:none;stroke-width:0.352777" />
  </g>
</svg>
