<?xml version="1.0" encoding="utf-8"?>
<!-- Generator: Adobe Illustrator 23.0.4, SVG Export Plug-In . SVG Version: 6.00 Build 0)  -->
<svg version="1.1"
	 id="svg78" inkscape:version="1.0 (4035a4f, 2020-05-01)" sodipodi:docname="pinya_icona3.svg" xmlns:cc="http://creativecommons.org/ns#" xmlns:dc="http://purl.org/dc/elements/1.1/" xmlns:inkscape="http://www.inkscape.org/namespaces/inkscape" xmlns:rdf="http://www.w3.org/1999/02/22-rdf-syntax-ns#" xmlns:sodipodi="http://sodipodi.sourceforge.net/DTD/sodipodi-0.dtd" xmlns:svg="http://www.w3.org/2000/svg"
	 xmlns="http://www.w3.org/2000/svg" xmlns:xlink="http://www.w3.org/1999/xlink" x="0px" y="0px" viewBox="0 0 283.5 283.5"
	 style="enable-background:new 0 0 283.5 283.5;" xml:space="preserve">
<style type="text/css">
	.st0{fill:#FFFFFF;}
</style>
<defs>
	
	
		<inkscape:path-effect  apply_no_radius="true" apply_with_radius="true" chamfer_steps="1" effect="fillet_chamfer" flexible="false" hide_knots="false" id="path-effect500" is_visible="true" lpeversion="1" method="auto" mode="F" only_selected="false" radius="5" satellites_param="F,0,0,1,0,5,0,1 @ F,0,0,1,0,5,0,1 @ F,0,0,1,0,5,0,1 @ F,0,0,1,0,5,0,1 @ F,0,0,1,0,5,0,1 @ F,0,0,1,0,5,0,1" unit="mm" use_knot_distance="true">
		</inkscape:path-effect>
	
		<inkscape:path-effect  apply_no_radius="true" apply_with_radius="true" chamfer_steps="1" effect="fillet_chamfer" flexible="false" hide_knots="false" id="path-effect498" is_visible="true" lpeversion="1" method="auto" mode="F" only_selected="false" radius="5" satellites_param="F,0,0,1,0,5,0,1 @ F,0,0,1,0,5,0,1 @ F,0,0,1,0,5,0,1 @ F,0,0,1,0,5,0,1 @ F,0,0,1,0,5,0,1 @ F,0,0,1,0,5,0,1" unit="mm" use_knot_distance="true">
		</inkscape:path-effect>
	
		<inkscape:path-effect  apply_no_radius="true" apply_with_radius="true" chamfer_steps="1" effect="fillet_chamfer" flexible="false" hide_knots="false" id="path-effect496" is_visible="true" lpeversion="1" method="auto" mode="F" only_selected="false" radius="5" satellites_param="F,0,0,1,0,5,0,1 @ F,0,0,1,0,5,0,1 @ F,0,0,1,0,5,0,1 @ F,0,0,1,0,5,0,1 @ F,0,0,1,0,5,0,1 @ F,0,0,1,0,5,0,1 @ F,0,0,1,0,5,0,1" unit="mm" use_knot_distance="true">
		</inkscape:path-effect>
	
		<inkscape:path-effect  apply_no_radius="true" apply_with_radius="true" chamfer_steps="1" effect="fillet_chamfer" flexible="false" hide_knots="false" id="path-effect494" is_visible="true" lpeversion="1" method="auto" mode="F" only_selected="false" radius="5" satellites_param="F,0,0,1,0,5,0,1 @ F,0,0,1,0,5,0,1 @ F,0,0,1,0,5,0,1 @ F,0,0,1,0,5,0,1 @ F,0,0,1,0,5,0,1 @ F,0,0,1,0,5,0,1 @ F,0,0,1,0,5,0,1 @ F,0,0,1,0,5,0,1" unit="mm" use_knot_distance="true">
		</inkscape:path-effect>
</defs>
<sodipodi:namedview  bordercolor="#666666" borderopacity="1.0" id="base" inkscape:current-layer="layer1" inkscape:cx="188.97638" inkscape:cy="188.97638" inkscape:document-rotation="0" inkscape:document-units="mm" inkscape:pageopacity="0.0" inkscape:pageshadow="2" inkscape:window-height="1006" inkscape:window-maximized="0" inkscape:window-width="1584" inkscape:window-x="0" inkscape:window-y="22" inkscape:zoom="2.111375" pagecolor="#ffffff" showgrid="false">
	</sodipodi:namedview>
<g id="layer1" inkscape:groupmode="layer" inkscape:label="Capa 1">
	<path id="path567" class="st0" d="M112.9,234c-1.5,0.1-2.9,1-3.5,2.5l-9.1,21.9c-0.8,1.9,0.1,4,2.1,4.7c11.5,3.7,23.5,5.8,35.6,6.2
		c2.1,0.1,5.4,0.1,7.5,0c12.1-0.4,24.1-2.4,35.6-6.2c2-0.6,2.9-2.8,2.1-4.7l-9.1-21.9c-0.8-1.9-3-2.9-5-2.3
		c-7.7,2.3-15.6,3.6-23.6,3.9c-2.1,0.1-5.4,0.1-7.5,0c-8-0.3-15.9-1.6-23.6-3.9C113.9,234,113.4,234,112.9,234z"/>
	<path id="path565" class="st0" d="M53.5,185.6c-0.6,0-1.1,0.1-1.7,0.3l-21.9,9.1c-0.5,0.2-0.9,0.5-1.2,0.8c-1,1-1.3,2.6-0.6,4
		c5.5,10.8,12.5,20.7,20.8,29.5c1.4,1.5,3.8,3.9,5.3,5.3c8.8,8.3,18.7,15.3,29.5,20.8c1.8,0.9,4,0.1,4.8-1.8l9.1-21.9
		c0.8-1.9-0.1-4.2-1.9-5.2c-7-3.8-13.6-8.5-19.4-13.9c-1.5-1.4-3.9-3.8-5.3-5.3c-5.4-5.9-10.1-12.4-13.9-19.4
		c-0.2-0.5-0.6-0.9-1-1.2C55.4,186,54.5,185.6,53.5,185.6z"/>
	<path id="path563" class="st0" d="M230.1,185.6c-1.5,0-3,0.8-3.7,2.2c-3.8,7-8.5,13.6-13.9,19.4c-1.4,1.5-3.8,3.9-5.3,5.3
		c-5.9,5.4-12.4,10.1-19.4,13.9c-0.5,0.2-0.9,0.6-1.2,1c-1,1.2-1.3,2.8-0.7,4.2l9.1,21.9c0.8,1.9,3,2.8,4.8,1.8
		c10.8-5.5,20.7-12.5,29.5-20.8c1.5-1.4,3.9-3.8,5.3-5.3c8.3-8.8,15.3-18.7,20.8-29.5c0.9-1.8,0.1-4-1.8-4.8l-21.9-9.1
		C231.1,185.7,230.6,185.6,230.1,185.6z"/>
	<path id="path561" class="st0" d="M137.2,177c-1.8,0.1-3.7,1.2-4.4,2.9h0l-15.7,37.9c-0.8,1.9,0.2,4,2.2,4.6
		c6.1,1.7,12.4,2.7,18.7,3c2.1,0.1,5.4,0.1,7.5,0c6.3-0.3,12.6-1.3,18.7-3c2-0.6,2.9-2.6,2.2-4.6l-15.7-37.9
		c-0.8-1.9-3.1-3.1-5.1-2.9h0c-2.1,0.2-5.4,0.2-7.5,0h0C137.7,176.9,137.5,176.9,137.2,177L137.2,177z"/>
	<path id="path559" class="st0" d="M109.8,162.1c-0.5,0-0.9,0.1-1.3,0.3l0,0l-37.9,15.7c-0.5,0.2-0.9,0.5-1.2,0.8
		c-1,1-1.2,2.6-0.5,3.9c3.1,5.5,6.8,10.6,11.1,15.3c1.4,1.5,3.8,3.9,5.3,5.3c4.7,4.3,9.8,8,15.3,11.1c1.8,1,3.9,0.2,4.7-1.7
		l15.7-37.9c0.8-1.9,0-4.4-1.6-5.7h0c-1.6-1.3-4-3.7-5.3-5.3h0c-0.2-0.2-0.3-0.4-0.5-0.6C112.6,162.5,111.2,162,109.8,162.1
		L109.8,162.1z"/>
	<path id="path557" class="st0" d="M173.5,162.1c-1.6,0-3.2,0.7-4.2,1.9v0c-1.3,1.6-3.7,4-5.3,5.3v0c-0.2,0.2-0.4,0.3-0.6,0.5
		c-1.2,1.4-1.7,3.4-1,5.1l0,0l15.7,37.9c0.8,1.9,2.9,2.7,4.7,1.7c5.5-3.1,10.6-6.8,15.3-11.1c1.5-1.4,3.9-3.8,5.3-5.3
		c4.3-4.7,8-9.8,11.1-15.3c1-1.8,0.2-3.9-1.7-4.7L175,162.4C174.5,162.2,174,162.1,173.5,162.1L173.5,162.1z"/>
	<path id="path555" class="st0" d="M141.7,119.1c-12.5,0-22.7,10.2-22.7,22.7c0,0,0,0,0,0c0,12.5,10.2,22.7,22.7,22.7c0,0,0,0,0,0
		c12.5,0,22.7-10.2,22.7-22.7c0,0,0,0,0,0C164.4,129.2,154.3,119.1,141.7,119.1C141.7,119.1,141.7,119.1,141.7,119.1z"/>
	<path id="path553" class="st0" d="M219.2,116.9c-0.5,0-1,0.1-1.4,0.3l-37.9,15.7c-1.9,0.8-3.1,3.1-2.9,5.1c0.2,2,0.2,3.6,0.2,3.7
		c-0.2,3.7-0.2,3.7-0.2,3.7c-0.2,2.1,1,4.3,2.9,5.1l37.9,15.7c1.9,0.8,4-0.2,4.6-2.2c1.7-6.1,2.7-12.4,3-18.7c0.1-2.1,0.1-4,0.1-3.9
		l-0.1-3.7c-0.3-6.3-1.3-12.5-3-18.5C221.9,117.8,220.6,116.9,219.2,116.9z"/>
	<path id="path551" class="st0" d="M64.3,116.9c-1.4,0-2.7,0.9-3.1,2.4c-1.7,6.1-2.7,12.4-3,18.7c-0.1,2.1-0.1,5.4,0,7.5
		c0.3,6.3,1.3,12.6,3,18.7c0.6,2,2.6,2.9,4.6,2.2l37.9-15.7c1.9-0.8,3.1-3.1,2.9-5.1v0c-0.2-2.1-0.2-5.4,0-7.5v0c0-0.3,0-0.5,0-0.8
		c-0.1-1.8-1.2-3.7-2.9-4.4v0l-37.9-15.7C65.2,117,64.8,116.9,64.3,116.9z"/>
	<path id="path549" class="st0" d="M23.6,100c-1.4,0-2.7,0.9-3.2,2.4c-3.7,11.5-5.8,23.5-6.2,35.6c-0.1,2.1-0.1,5.4,0,7.5
		c0.4,12.1,2.4,24.1,6.2,35.6c0.6,2,2.8,2.9,4.7,2.1l21.9-9.1c1.9-0.8,2.9-3,2.3-5c-2.3-7.7-3.6-15.6-3.9-23.6
		c-0.1-2.1-0.1-5.4,0-7.5c0.3-8,1.6-15.9,3.9-23.6c0.1-0.5,0.2-1,0.2-1.5c-0.1-1.5-1-2.9-2.5-3.5l-21.9-9.1
		C24.6,100.1,24.1,100,23.6,100z"/>
	<path id="path547" class="st0" d="M259.9,100c-0.5,0-1,0.1-1.4,0.3l-21.9,9.1c-1.9,0.8-2.9,3-2.3,5c2.3,7.7,3.6,15.6,3.9,23.6
		c0.1,2.1,0.1,5.4,0,7.5c-0.3,8-1.6,15.9-3.9,23.6c-0.6,2,0.4,4.2,2.3,5l21.9,9.1c1.9,0.8,4-0.1,4.7-2.1c3.7-11.5,5.8-23.5,6.2-35.6
		c0.1-2.1,0.1-4,0.1-4.3l-0.1-3.7c-0.4-11.9-2.5-23.7-6.1-35.1C262.6,100.9,261.3,100,259.9,100L259.9,100z"/>
	<path id="path545" class="st0" d="M181.3,68.5c-0.9,0-1.7,0.3-2.4,0.9c-0.3,0.3-0.6,0.7-0.8,1.2l-15.7,37.9c-0.8,1.9,0,4.4,1.6,5.7
		c1.5,1.2,2.7,2.4,2.8,2.5c2.5,2.8,2.5,2.8,2.5,2.8c1.3,1.6,3.7,2.4,5.7,1.6l37.9-15.7c1.9-0.8,2.7-2.9,1.7-4.7
		c-3.1-5.5-6.8-10.6-11.1-15.3c-1.4-1.5-2.8-2.9-2.7-2.8l-2.7-2.6c-4.6-4.2-9.7-7.9-15.2-11C182.3,68.6,181.8,68.5,181.3,68.5
		L181.3,68.5z"/>
	<path id="path543" class="st0" d="M102.4,68.5c-0.6,0-1.2,0.1-1.7,0.4C95.1,72,90,75.7,85.3,80c-1.5,1.4-2.9,2.8-2.8,2.7l-2.6,2.7
		c-4.2,4.6-7.9,9.7-11,15.2c-1,1.8-0.2,3.9,1.7,4.7l37.9,15.7c1.9,0.8,4.4,0,5.7-1.6c1.2-1.5,2.4-2.7,2.5-2.8
		c2.8-2.5,2.8-2.5,2.8-2.5c1.6-1.3,2.4-3.7,1.6-5.7l-15.7-37.9C104.8,69.3,103.6,68.5,102.4,68.5z"/>
	<path id="path541" class="st0" d="M141.6,58.1l-3.7,0.1c-6.3,0.3-12.5,1.3-18.5,3c-2,0.6-2.9,2.6-2.2,4.6l15.7,37.9
		c0.8,1.9,3.1,3.1,5.1,2.9c2-0.2,3.6-0.2,3.7-0.2c3.7,0.2,3.7,0.2,3.7,0.2c2.1,0.2,4.3-1,5.1-2.9l15.7-37.9c0.8-1.9-0.2-4-2.2-4.6
		c-6.1-1.7-12.4-2.7-18.7-3C143.4,58.1,141.5,58.1,141.6,58.1z"/>
	<path id="path539" class="st0" d="M85.1,27.7c-0.5,0-1,0.1-1.4,0.4C73,33.6,63,40.6,54.2,48.9c-1.5,1.4-2.9,2.8-3,3l-2.6,2.7
		c-8.1,8.7-15,18.5-20.4,29.1c-0.9,1.8-0.1,4,1.8,4.8l21.9,9.1c1.9,0.8,4.2-0.1,5.2-1.9c3.8-7,8.5-13.6,13.9-19.4
		c1.4-1.5,3.8-3.9,5.3-5.3c5.9-5.4,12.4-10.1,19.4-13.9c1.8-1,2.7-3.3,1.9-5.2l-9.1-21.9C87.9,28.5,86.6,27.7,85.1,27.7z"/>
	<path id="path537" class="st0" d="M198.1,27.7c-0.9,0-1.7,0.3-2.4,1c-0.3,0.3-0.6,0.7-0.8,1.2l-9.1,21.9c-0.8,1.9,0.1,4.2,1.9,5.2
		c7,3.8,13.6,8.5,19.4,13.9c1.5,1.4,3.9,3.8,5.3,5.3c5.4,5.9,10.1,12.4,13.9,19.4c1,1.8,3.3,2.7,5.2,1.9l21.9-9.1
		c1.9-0.8,2.8-3,1.8-4.8C249.8,73,242.8,63,234.5,54.2c-1.4-1.5-2.8-2.9-3-3l-2.7-2.6c-8.7-8.1-18.5-15-29.1-20.4
		C199.2,27.9,198.7,27.7,198.1,27.7z"/>
	<path id="path490" class="st0" d="M141.2,14.2l-3.7,0.1c-11.9,0.4-23.7,2.5-35.1,6.1c-2,0.6-2.9,2.8-2.1,4.7l9.1,21.9
		c0.8,1.9,3,2.9,5,2.3c7.7-2.3,15.6-3.6,23.6-3.9c2.1-0.1,5.4-0.1,7.5,0c8,0.3,15.9,1.6,23.6,3.9c2,0.6,4.2-0.4,5-2.3l9.1-21.9
		c0.8-1.9-0.1-4-2.1-4.7c-11.5-3.7-23.5-5.8-35.6-6.2C143.4,14.2,141.5,14.2,141.2,14.2z"/>
</g>
</svg>
