<?xml version="1.0" encoding="UTF-8" standalone="no"?>
<svg
   xmlns:dc="http://purl.org/dc/elements/1.1/"
   xmlns:cc="http://creativecommons.org/ns#"
   xmlns:rdf="http://www.w3.org/1999/02/22-rdf-syntax-ns#"
   xmlns:svg="http://www.w3.org/2000/svg"
   xmlns="http://www.w3.org/2000/svg"
   xmlns:sodipodi="http://sodipodi.sourceforge.net/DTD/sodipodi-0.dtd"
   xmlns:inkscape="http://www.inkscape.org/namespaces/inkscape"
   sodipodi:docname="pinya_icona2.svg"
   inkscape:version="1.0 (4035a4f, 2020-05-01)"
   id="svg8"
   version="1.1"
   viewBox="0 0 100 100"
   height="100mm"
   width="100mm">
  <defs
     id="defs2" />
  <sodipodi:namedview
     inkscape:window-maximized="0"
     inkscape:window-y="22"
     inkscape:window-x="0"
     inkscape:window-height="1006"
     inkscape:window-width="1528"
     showgrid="false"
     inkscape:document-rotation="0"
     inkscape:current-layer="layer1"
     inkscape:document-units="mm"
     inkscape:cy="188.97638"
     inkscape:cx="188.97638"
     inkscape:zoom="2.111375"
     inkscape:pageshadow="2"
     inkscape:pageopacity="0.0"
     borderopacity="1.0"
     bordercolor="#666666"
     pagecolor="#ffffff"
     id="base" />
  <metadata
     id="metadata5">
    <rdf:RDF>
      <cc:Work
         rdf:about="">
        <dc:format>image/svg+xml</dc:format>
        <dc:type
           rdf:resource="http://purl.org/dc/dcmitype/StillImage" />
        <dc:title></dc:title>
      </cc:Work>
    </rdf:RDF>
  </metadata>
  <g
     id="layer1"
     inkscape:groupmode="layer"
     inkscape:label="Capa 1">
    <path
       id="path3370"
       transform="scale(0.26458333)"
       d="m 188.97656,308.97656 a 21.176333,21.176333 0 0 0 -21.17578,21.17578 21.176333,21.176333 0 0 0 21.17578,21.17578 21.176333,21.176333 0 0 0 21.17578,-21.17578 21.176333,21.176333 0 0 0 -21.17578,-21.17578 z"
       style="fill:#000000;stroke:none;stroke-width:0;stop-color:#000000" />
    <path
       id="path3368"
       transform="scale(0.26458333)"
       d="m 243.00195,298.22852 a 21.176333,21.176333 0 0 0 -21.17578,21.17773 21.176333,21.176333 0 0 0 21.17578,21.17578 21.176333,21.176333 0 0 0 21.17578,-21.17578 21.176333,21.176333 0 0 0 -21.17578,-21.17773 z"
       style="fill:#000000;stroke:none;stroke-width:0;stop-color:#000000" />
    <path
       id="path3366"
       transform="scale(0.26458333)"
       d="m 134.95117,298.22852 a 21.176333,21.176333 0 0 0 -21.17578,21.17773 21.176333,21.176333 0 0 0 21.17578,21.17578 21.176333,21.176333 0 0 0 21.17578,-21.17578 21.176333,21.176333 0 0 0 -21.17578,-21.17773 z"
       style="fill:#000000;stroke:none;stroke-width:0;stop-color:#000000" />
    <path
       id="path3364"
       transform="scale(0.26458333)"
       d="m 288.80273,267.62695 a 21.176333,21.176333 0 0 0 -21.17578,21.17578 21.176333,21.176333 0 0 0 21.17578,21.17579 21.176333,21.176333 0 0 0 21.17579,-21.17579 21.176333,21.176333 0 0 0 -21.17579,-21.17578 z"
       style="fill:#000000;stroke:none;stroke-width:0;stop-color:#000000" />
    <path
       id="path3362"
       transform="scale(0.26458333)"
       d="M 89.150391,267.62695 A 21.176333,21.176333 0 0 0 67.974609,288.80273 21.176333,21.176333 0 0 0 89.150391,309.97852 21.176333,21.176333 0 0 0 110.32617,288.80273 21.176333,21.176333 0 0 0 89.150391,267.62695 Z"
       style="fill:#000000;stroke:none;stroke-width:0;stop-color:#000000" />
    <path
       id="path3360"
       transform="scale(0.26458333)"
       d="m 188.85547,245.72656 a 28.811337,28.811337 0 0 0 -28.68945,28.81055 28.811337,28.811337 0 0 0 28.81054,28.8125 28.811337,28.811337 0 0 0 28.81055,-28.8125 28.811337,28.811337 0 0 0 -28.81055,-28.81055 28.811337,28.811337 0 0 0 -0.12109,0 z"
       style="fill:#000000;stroke:none;stroke-width:0;stop-color:#000000" />
    <path
       id="path3358"
       transform="scale(0.26458333)"
       d="m 319.40625,221.82617 a 21.176333,21.176333 0 0 0 -21.17773,21.17578 21.176333,21.176333 0 0 0 21.17773,21.17578 21.176333,21.176333 0 0 0 21.17578,-21.17578 21.176333,21.176333 0 0 0 -21.17578,-21.17578 z"
       style="fill:#000000;stroke:none;stroke-width:0;stop-color:#000000" />
    <path
       id="path3356"
       transform="scale(0.26458333)"
       d="M 58.546875,221.82617 A 21.176333,21.176333 0 0 0 37.371094,243.00195 21.176333,21.176333 0 0 0 58.546875,264.17773 21.176333,21.176333 0 0 0 79.722656,243.00195 21.176333,21.176333 0 0 0 58.546875,221.82617 Z"
       style="fill:#000000;stroke:none;stroke-width:0;stop-color:#000000" />
    <path
       id="path3354"
       transform="scale(0.26458333)"
       d="m 249.35742,220.66602 a 28.811337,28.811337 0 0 0 -28.6914,28.81054 28.811337,28.811337 0 0 0 28.81054,28.8125 28.811337,28.811337 0 0 0 28.8125,-28.8125 28.811337,28.811337 0 0 0 -28.8125,-28.81054 28.811337,28.811337 0 0 0 -0.11914,0 z"
       style="fill:#000000;stroke:none;stroke-width:0;stop-color:#000000" />
    <path
       id="path3352"
       transform="scale(0.26458333)"
       d="m 128.35547,220.66602 a 28.811337,28.811337 0 0 0 -28.691408,28.81054 28.811337,28.811337 0 0 0 28.812498,28.8125 28.811337,28.811337 0 0 0 28.81055,-28.8125 28.811337,28.811337 0 0 0 -28.81055,-28.81054 28.811337,28.811337 0 0 0 -0.12109,0 z"
       style="fill:#000000;stroke:none;stroke-width:0;stop-color:#000000" />
    <path
       id="path3350"
       transform="scale(0.26458333)"
       d="m 330.15234,167.80078 a 21.176333,21.176333 0 0 0 -21.17578,21.17578 21.176333,21.176333 0 0 0 21.17578,21.17578 21.176333,21.176333 0 0 0 21.17578,-21.17578 21.176333,21.176333 0 0 0 -21.17578,-21.17578 z"
       style="fill:#000000;stroke:none;stroke-width:0;stop-color:#000000" />
    <path
       id="path3348"
       transform="scale(0.26458333)"
       d="M 47.800781,167.80078 A 21.176333,21.176333 0 0 0 26.625,188.97656 21.176333,21.176333 0 0 0 47.800781,210.15234 21.176333,21.176333 0 0 0 68.976562,188.97656 21.176333,21.176333 0 0 0 47.800781,167.80078 Z"
       style="fill:#000000;stroke:none;stroke-width:0;stop-color:#000000" />
    <path
       id="path3346"
       transform="scale(0.26458333)"
       d="m 274.41602,160.16602 a 28.811337,28.811337 0 0 0 -28.68946,28.81054 28.811337,28.811337 0 0 0 28.81055,28.81055 28.811337,28.811337 0 0 0 28.8125,-28.81055 28.811337,28.811337 0 0 0 -28.8125,-28.81054 28.811337,28.811337 0 0 0 -0.12109,0 z"
       style="fill:#000000;stroke:none;stroke-width:0;stop-color:#000000" />
    <path
       id="path3344"
       transform="scale(0.26458333)"
       d="m 103.29492,160.16602 a 28.811337,28.811337 0 0 0 -28.691404,28.81054 28.811337,28.811337 0 0 0 28.812504,28.81055 28.811337,28.811337 0 0 0 28.81054,-28.81055 28.811337,28.811337 0 0 0 -28.81054,-28.81054 28.811337,28.811337 0 0 0 -0.1211,0 z"
       style="fill:#000000;stroke:none;stroke-width:0;stop-color:#000000" />
    <path
       id="path3342"
       transform="scale(0.26458333)"
       d="m 188.97656,145.75977 a 43.217012,43.217012 0 0 0 -43.21679,43.21679 43.217012,43.217012 0 0 0 43.21679,43.2168 43.217012,43.217012 0 0 0 43.2168,-43.2168 43.217012,43.217012 0 0 0 -43.2168,-43.21679 z"
       style="fill:#000000;stroke:none;stroke-width:0;stop-color:#000000" />
    <path
       id="path3340"
       transform="scale(0.26458333)"
       d="m 319.40625,113.77539 a 21.176333,21.176333 0 0 0 -21.17773,21.17578 21.176333,21.176333 0 0 0 21.17773,21.17578 21.176333,21.176333 0 0 0 21.17578,-21.17578 21.176333,21.176333 0 0 0 -21.17578,-21.17578 z"
       style="fill:#000000;stroke:none;stroke-width:0;stop-color:#000000" />
    <path
       id="path3338"
       transform="scale(0.26458333)"
       d="M 58.546875,113.77539 A 21.176333,21.176333 0 0 0 37.371094,134.95117 21.176333,21.176333 0 0 0 58.546875,156.12695 21.176333,21.176333 0 0 0 79.722656,134.95117 21.176333,21.176333 0 0 0 58.546875,113.77539 Z"
       style="fill:#000000;stroke:none;stroke-width:0;stop-color:#000000" />
    <path
       id="path3336"
       transform="scale(0.26458333)"
       d="m 249.35742,99.664062 a 28.811337,28.811337 0 0 0 -28.6914,28.812498 28.811337,28.811337 0 0 0 28.81054,28.81055 28.811337,28.811337 0 0 0 28.8125,-28.81055 28.811337,28.811337 0 0 0 -28.8125,-28.812498 28.811337,28.811337 0 0 0 -0.11914,0 z"
       style="fill:#000000;stroke:none;stroke-width:0;stop-color:#000000" />
    <path
       id="path3334"
       transform="scale(0.26458333)"
       d="m 128.35547,99.664062 a 28.811337,28.811337 0 0 0 -28.691408,28.812498 28.811337,28.811337 0 0 0 28.812498,28.81055 28.811337,28.811337 0 0 0 28.81055,-28.81055 28.811337,28.811337 0 0 0 -28.81055,-28.812498 28.811337,28.811337 0 0 0 -0.12109,0 z"
       style="fill:#000000;stroke:none;stroke-width:0;stop-color:#000000" />
    <path
       id="path3332"
       transform="scale(0.26458333)"
       d="m 188.85547,74.603516 a 28.811337,28.811337 0 0 0 -28.68945,28.812504 28.811337,28.811337 0 0 0 28.81054,28.81054 28.811337,28.811337 0 0 0 28.81055,-28.81054 28.811337,28.811337 0 0 0 -28.81055,-28.812504 28.811337,28.811337 0 0 0 -0.12109,0 z"
       style="fill:#000000;stroke:none;stroke-width:0;stop-color:#000000" />
    <path
       id="path3330"
       transform="scale(0.26458333)"
       d="M 288.80273,67.974609 A 21.176333,21.176333 0 0 0 267.62695,89.150391 21.176333,21.176333 0 0 0 288.80273,110.32617 21.176333,21.176333 0 0 0 309.97852,89.150391 21.176333,21.176333 0 0 0 288.80273,67.974609 Z"
       style="fill:#000000;stroke:none;stroke-width:0;stop-color:#000000" />
    <path
       id="path3328"
       transform="scale(0.26458333)"
       d="M 89.150391,67.974609 A 21.176333,21.176333 0 0 0 67.974609,89.150391 21.176333,21.176333 0 0 0 89.150391,110.32617 21.176333,21.176333 0 0 0 110.32617,89.150391 21.176333,21.176333 0 0 0 89.150391,67.974609 Z"
       style="fill:#000000;stroke:none;stroke-width:0;stop-color:#000000" />
    <path
       id="path3326"
       transform="scale(0.26458333)"
       d="M 243.00195,37.371094 A 21.176333,21.176333 0 0 0 221.82617,58.546875 21.176333,21.176333 0 0 0 243.00195,79.722656 21.176333,21.176333 0 0 0 264.17773,58.546875 21.176333,21.176333 0 0 0 243.00195,37.371094 Z"
       style="fill:#000000;stroke:none;stroke-width:0;stop-color:#000000" />
    <path
       id="path3324"
       transform="scale(0.26458333)"
       d="M 134.95117,37.371094 A 21.176333,21.176333 0 0 0 113.77539,58.546875 21.176333,21.176333 0 0 0 134.95117,79.722656 21.176333,21.176333 0 0 0 156.12695,58.546875 21.176333,21.176333 0 0 0 134.95117,37.371094 Z"
       style="fill:#000000;stroke:none;stroke-width:0;stop-color:#000000" />
    <path
       id="path1314-7"
       transform="scale(0.26458333)"
       d="M 188.97656,26.625 A 21.176333,21.176333 0 0 0 167.80078,47.800781 21.176333,21.176333 0 0 0 188.97656,68.976562 21.176333,21.176333 0 0 0 210.15234,47.800781 21.176333,21.176333 0 0 0 188.97656,26.625 Z"
       style="fill:#000000;stroke:none;stroke-width:0;stop-color:#000000" />
  </g>
</svg>
