<?xml version="1.0" encoding="UTF-8" standalone="no"?>
<svg
   xmlns:dc="http://purl.org/dc/elements/1.1/"
   xmlns:cc="http://creativecommons.org/ns#"
   xmlns:rdf="http://www.w3.org/1999/02/22-rdf-syntax-ns#"
   xmlns:svg="http://www.w3.org/2000/svg"
   xmlns="http://www.w3.org/2000/svg"
   xmlns:sodipodi="http://sodipodi.sourceforge.net/DTD/sodipodi-0.dtd"
   xmlns:inkscape="http://www.inkscape.org/namespaces/inkscape"
   sodipodi:docname="pinya_icona_gray_focus.svg"
   inkscape:version="1.0 (4035a4f, 2020-05-01)"
   id="svg78"
   version="1.1"
   viewBox="0 0 100 100"
   height="100mm"
   width="100mm">
  <defs
     id="defs72">
    <inkscape:path-effect
       hide_knots="false"
       only_selected="false"
       apply_with_radius="true"
       apply_no_radius="true"
       use_knot_distance="true"
       flexible="false"
       chamfer_steps="1"
       radius="5"
       mode="F"
       method="auto"
       unit="mm"
       satellites_param="F,0,0,1,0,5,0,1 @ F,0,0,1,0,5,0,1 @ F,0,0,1,0,5,0,1 @ F,0,0,1,0,5,0,1 @ F,0,0,1,0,5,0,1 @ F,0,0,1,0,5,0,1"
       lpeversion="1"
       is_visible="true"
       id="path-effect500"
       effect="fillet_chamfer" />
    <inkscape:path-effect
       hide_knots="false"
       only_selected="false"
       apply_with_radius="true"
       apply_no_radius="true"
       use_knot_distance="true"
       flexible="false"
       chamfer_steps="1"
       radius="5"
       mode="F"
       method="auto"
       unit="mm"
       satellites_param="F,0,0,1,0,5,0,1 @ F,0,0,1,0,5,0,1 @ F,0,0,1,0,5,0,1 @ F,0,0,1,0,5,0,1 @ F,0,0,1,0,5,0,1 @ F,0,0,1,0,5,0,1"
       lpeversion="1"
       is_visible="true"
       id="path-effect498"
       effect="fillet_chamfer" />
    <inkscape:path-effect
       hide_knots="false"
       only_selected="false"
       apply_with_radius="true"
       apply_no_radius="true"
       use_knot_distance="true"
       flexible="false"
       chamfer_steps="1"
       radius="5"
       mode="F"
       method="auto"
       unit="mm"
       satellites_param="F,0,0,1,0,5,0,1 @ F,0,0,1,0,5,0,1 @ F,0,0,1,0,5,0,1 @ F,0,0,1,0,5,0,1 @ F,0,0,1,0,5,0,1 @ F,0,0,1,0,5,0,1 @ F,0,0,1,0,5,0,1"
       lpeversion="1"
       is_visible="true"
       id="path-effect496"
       effect="fillet_chamfer" />
    <inkscape:path-effect
       hide_knots="false"
       only_selected="false"
       apply_with_radius="true"
       apply_no_radius="true"
       use_knot_distance="true"
       flexible="false"
       chamfer_steps="1"
       radius="5"
       mode="F"
       method="auto"
       unit="mm"
       satellites_param="F,0,0,1,0,5,0,1 @ F,0,0,1,0,5,0,1 @ F,0,0,1,0,5,0,1 @ F,0,0,1,0,5,0,1 @ F,0,0,1,0,5,0,1 @ F,0,0,1,0,5,0,1 @ F,0,0,1,0,5,0,1 @ F,0,0,1,0,5,0,1"
       lpeversion="1"
       is_visible="true"
       id="path-effect494"
       effect="fillet_chamfer" />
  </defs>
  <sodipodi:namedview
     inkscape:window-maximized="0"
     inkscape:window-y="22"
     inkscape:window-x="0"
     inkscape:window-height="1006"
     inkscape:window-width="1584"
     showgrid="false"
     inkscape:document-rotation="0"
     inkscape:current-layer="layer1"
     inkscape:document-units="mm"
     inkscape:cy="188.97638"
     inkscape:cx="188.97638"
     inkscape:zoom="2.111375"
     inkscape:pageshadow="2"
     inkscape:pageopacity="0.0"
     borderopacity="1.0"
     bordercolor="#666666"
     pagecolor="#ffffff"
     id="base" />
  <metadata
     id="metadata75">
    <rdf:RDF>
      <cc:Work
         rdf:about="">
        <dc:format>image/svg+xml</dc:format>
        <dc:type
           rdf:resource="http://purl.org/dc/dcmitype/StillImage" />
        <dc:title></dc:title>
      </cc:Work>
    </rdf:RDF>
  </metadata>
  <g
     id="layer1"
     inkscape:groupmode="layer"
     inkscape:label="Capa 1">
    <path
       id="path567"
       transform="scale(0.26458333)"
       d="m 150.51953,312.00586 c -2.00321,0.16611 -3.87542,1.39712 -4.66797,3.31055 l -12.10742,29.23437 c -1.05673,2.55123 0.19147,5.37939 2.81836,6.23047 15.33579,4.96858 31.30047,7.73056 47.41406,8.20508 2.76013,0.0813 7.23987,0.0811 10,0 16.1135,-0.474 32.07824,-3.2351 47.41406,-8.20313 2.62694,-0.85098 3.87509,-3.67925 2.81836,-6.23047 l -12.10742,-29.23437 c -1.05673,-2.55123 -4.03184,-3.89052 -6.67968,-3.10742 -10.22654,3.02447 -20.79094,4.76296 -31.44727,5.17773 -2.75916,0.10738 -7.23694,0.10753 -9.99609,0 -10.65643,-0.41525 -21.22078,-2.15471 -31.44727,-5.17969 -0.66196,-0.19581 -1.34398,-0.25849 -2.01172,-0.20312 z"
       style="fill:#575757;stroke:none;stroke-width:51.3373;stop-color:#575757" />
    <path
       id="path565"
       transform="scale(0.26458333)"
       d="m 71.367188,247.43164 c -0.746895,-0.0321 -1.503173,0.0895 -2.220704,0.38672 l -29.234375,12.11133 c -0.637806,0.26419 -1.185019,0.64235 -1.628906,1.09961 -1.331672,1.37175 -1.724971,3.45435 -0.783203,5.29882 7.330726,14.35736 16.66612,27.59857 27.724609,39.32813 1.89422,2.0092 5.063205,5.17791 7.072266,7.07227 11.729133,11.05879 24.969164,20.39346 39.326175,27.7246 2.45925,1.2558 5.34167,0.1391 6.39843,-2.4121 l 12.11133,-29.23243 c 1.05678,-2.55121 -0.0993,-5.60328 -2.52539,-6.92187 -9.36987,-5.09263 -18.06999,-11.33234 -25.89844,-18.57422 -2.026945,-1.8751 -5.193373,-5.04132 -7.068355,-7.06836 -7.241601,-7.82885 -13.481989,-16.52823 -18.574219,-25.89844 -0.329612,-0.60654 -0.767979,-1.13339 -1.279297,-1.5664 -0.958712,-0.81189 -2.175097,-1.29416 -3.419921,-1.34766 z"
       style="fill:#575757;stroke:none;stroke-width:51.3373;stop-color:#575757" />
    <path
       id="path563"
       transform="scale(0.26458333)"
       d="m 306.83594,247.42578 c -1.99612,-0.007 -3.96029,1.09844 -4.94922,2.91797 -5.09263,9.36988 -11.33234,18.06999 -18.57422,25.89844 -1.87509,2.02694 -5.04131,5.19338 -7.06836,7.06836 -7.82886,7.24161 -16.52823,13.48198 -25.89844,18.57422 -0.60654,0.32961 -1.13339,0.76798 -1.5664,1.27929 -1.29903,1.53394 -1.75352,3.72721 -0.96094,5.64063 l 12.11133,29.23437 c 1.05677,2.55121 3.93914,3.6678 6.39843,2.41211 14.35736,-7.33072 27.59856,-16.66612 39.32813,-27.72461 2.00919,-1.89422 5.17791,-5.06321 7.07227,-7.07226 11.05879,-11.72914 20.39346,-24.96918 27.7246,-39.32618 1.2558,-2.45925 0.1391,-5.34167 -2.4121,-6.39843 l -29.23243,-12.11133 c -0.6378,-0.26419 -1.30728,-0.39032 -1.97265,-0.39258 z"
       style="fill:#575757;stroke:none;stroke-width:51.3373;stop-color:#575757" />
    <path
       id="path561"
       transform="scale(0.26458333)"
       d="m 182.94531,235.9375 c -2.43635,0.13992 -4.88391,1.62119 -5.80859,3.85352 h -0.002 l -20.93165,50.53515 c -1.05676,2.55122 0.21105,5.32782 2.8711,6.06836 8.12434,2.26178 16.47946,3.59458 24.9043,3.97266 2.7584,0.12378 7.23768,0.12385 9.99609,0 8.42417,-0.37821 16.77863,-1.71106 24.90234,-3.97266 2.66005,-0.74054 3.9278,-3.51712 2.8711,-6.06836 l -20.92969,-50.53515 c -1.05671,-2.55124 -4.10493,-4.11978 -6.84961,-3.82813 h -0.002 c -2.7447,0.29152 -7.23577,0.29152 -9.98047,0 h -0.002 c -0.34311,-0.0363 -0.69101,-0.0455 -1.03907,-0.0254 z"
       style="fill:#575757;stroke:none;stroke-width:51.3373;stop-color:#575757" />
    <path
       id="path559"
       transform="scale(0.26458333)"
       d="m 146.42578,216.13281 c -0.60283,0.0406 -1.19582,0.17314 -1.7539,0.4043 l -0.002,-0.002 -50.533201,20.93164 c -0.637807,0.26419 -1.183523,0.6414 -1.621094,1.0957 -1.312671,1.36292 -1.658599,3.42313 -0.640625,5.22656 4.145454,7.3441 9.11087,14.19336 14.80078,20.41797 1.86296,2.03801 5.03029,5.20545 7.06836,7.06836 6.22422,5.68935 13.07444,10.65564 20.41797,14.80078 2.40457,1.35729 5.26548,0.28947 6.32227,-2.26172 l 20.93359,-50.5332 c 1.05678,-2.5512 0.0104,-5.81623 -2.13672,-7.55078 h -0.002 c -2.14693,-1.73466 -5.32198,-4.91167 -7.05664,-7.05859 h -0.002 c -0.21668,-0.26854 -0.45641,-0.52207 -0.71679,-0.75391 -1.36627,-1.21787 -3.26963,-1.90695 -5.07813,-1.78516 z"
       style="fill:#575757;stroke:none;stroke-width:51.3373;stop-color:#575757" />
    <path
       id="path557"
       transform="scale(0.26458333)"
       d="m 231.26953,216.11914 c -2.07575,-0.0509 -4.23815,0.94046 -5.53906,2.55078 v 0.002 c -1.73466,2.14693 -4.91167,5.32197 -7.05859,7.05664 v 0.002 c -0.26828,0.21694 -0.52207,0.45641 -0.75391,0.7168 -1.62382,1.82169 -2.30551,4.59968 -1.38086,6.83203 l -0.002,0.002 20.93164,50.5332 c 1.05673,2.55123 3.91768,3.61902 6.32226,2.26172 7.3441,-4.14545 14.19337,-9.11086 20.41797,-14.80078 2.03801,-1.86296 5.20545,-5.03029 7.06836,-7.06836 5.68935,-6.22422 10.65565,-13.07444 14.80078,-20.41797 1.3573,-2.40458 0.28946,-5.26546 -2.26172,-6.32226 l -50.5332,-20.9336 c -0.6378,-0.26419 -1.3198,-0.39708 -2.01172,-0.41406 z"
       style="fill:#575757;stroke:none;stroke-width:51.3373;stop-color:#575757" />
    <path
       id="path555"
       transform="scale(0.26458333)"
       d="m 188.97656,158.74023 a 30.23622,30.23622 0 0 0 -30.23633,30.23633 30.23622,30.23622 0 0 0 30.23633,30.23633 30.23622,30.23622 0 0 0 30.23633,-30.23633 30.23622,30.23622 0 0 0 -30.23633,-30.23633 z"
       style="fill:#575757;stroke:none;stroke-width:51.3373;stop-color:#575757" />
    <path
       id="path553"
       transform="scale(0.26458333)"
       d="m 292.23438,155.83398 c -0.63065,-0.0118 -1.28407,0.10692 -1.92188,0.3711 l -50.53516,20.92969 c -2.55124,1.05671 -4.11993,4.10493 -3.82812,6.84961 0.27863,2.62062 0.26401,4.86598 0.26367,4.99218 -0.26434,4.99143 -0.2636,4.99144 -0.26367,4.99219 -0.29167,2.74468 1.27688,5.7929 3.82812,6.84961 l 50.53516,20.92969 c 2.55124,1.05671 5.32782,-0.21105 6.06836,-2.8711 2.2616,-8.12372 3.59445,-16.47817 3.97266,-24.90234 0.12385,-2.75841 0.11132,-5.33761 0.11132,-5.2168 l -0.12109,-4.99804 c -0.39135,-8.35036 -1.72086,-16.63036 -3.96289,-24.6836 -0.55542,-1.99502 -2.25457,-3.20674 -4.14648,-3.24219 z"
       style="fill:#575757;stroke:none;stroke-width:51.3373;stop-color:#575757" />
    <path
       id="path551"
       transform="scale(0.26458333)"
       d="m 85.705078,155.83203 c -1.891927,0.0354 -3.593034,1.24715 -4.148437,3.24219 -2.261783,8.12434 -3.594575,16.47946 -3.972657,24.9043 -0.123779,2.7584 -0.123855,7.23768 0,9.99609 0.37821,8.42417 1.711055,16.77862 3.972657,24.90234 0.740538,2.66004 3.517121,3.92781 6.068359,2.8711 l 50.53516,-20.92969 c 2.55123,-1.05671 4.11977,-4.10493 3.82812,-6.84961 v -0.002 c -0.29151,-2.7447 -0.29151,-7.23577 0,-9.98047 v -0.002 c 0.0367,-0.34311 0.0455,-0.69101 0.0254,-1.03907 -0.13992,-2.43635 -1.62119,-4.88391 -3.85351,-5.80859 v -0.002 L 87.625,156.20312 c -0.637805,-0.26418 -1.28928,-0.3829 -1.919922,-0.37109 z"
       style="fill:#575757;stroke:none;stroke-width:51.3373;stop-color:#575757" />
    <path
       id="path549"
       transform="scale(0.26458333)"
       d="m 31.470703,133.36914 c -1.911614,0.0284 -3.662473,1.22319 -4.300781,3.19336 -4.968582,15.33579 -7.730555,31.30047 -8.205078,47.41406 -0.0813,2.76013 -0.08111,7.23987 0,10 0.474002,16.1135 3.235095,32.07823 8.203125,47.41406 0.850979,2.62694 3.679246,3.87509 6.230469,2.81836 l 29.234374,-12.10742 c 2.551231,-1.05673 3.890522,-4.03183 3.107422,-6.67968 -3.024468,-10.22654 -4.762965,-20.79094 -5.177734,-31.44727 -0.107376,-2.75916 -0.107528,-7.23694 0,-9.99609 0.415249,-10.65642 2.154705,-21.22078 5.179688,-31.44727 0.195816,-0.66196 0.258495,-1.34398 0.203124,-2.01172 -0.166109,-2.00321 -1.397115,-3.87542 -3.310546,-4.66797 L 33.400391,133.74414 c -0.637808,-0.26418 -1.292483,-0.38446 -1.929688,-0.375 z"
       style="fill:#575757;stroke:none;stroke-width:51.3373;stop-color:#575757" />
    <path
       id="path547"
       transform="scale(0.26458333)"
       d="m 346.4707,133.36719 c -0.6372,-0.009 -1.29384,0.11079 -1.93164,0.375 l -29.23437,12.10937 c -2.55119,1.05684 -3.89053,4.03181 -3.10742,6.67969 3.02446,10.22653 4.76296,20.79094 5.17773,31.44727 0.10738,2.75916 0.10753,7.23693 0,9.99609 -0.41525,10.65642 -2.1547,21.22077 -5.17969,31.44727 -0.78323,2.64782 0.55619,5.62295 3.10742,6.67968 l 29.23438,12.10742 c 2.55123,1.05675 5.37939,-0.19147 6.23047,-2.81836 4.96858,-15.33577 7.73056,-31.30046 8.20508,-47.41406 0.0813,-2.76013 0.0749,-5.30167 0.0742,-5.67383 l -0.0938,-4.99804 c -0.53048,-15.88662 -3.28455,-31.62245 -8.18359,-46.74414 -0.63829,-1.97019 -2.38721,-3.165 -4.29883,-3.19336 z"
       style="fill:#575757;stroke:none;stroke-width:51.3373;stop-color:#575757" />
    <path
       id="path545"
       transform="scale(0.26458333)"
       d="m 241.69336,91.294922 c -1.16309,-0.03217 -2.28493,0.410018 -3.13672,1.230469 -0.45422,0.437654 -0.83347,0.983283 -1.09766,1.621093 l -20.93359,50.535156 c -1.05679,2.5512 -0.0104,5.81438 2.13672,7.54883 2.05008,1.65604 3.6278,3.25427 3.7168,3.34375 3.34255,3.71639 3.34327,3.71621 3.34375,3.7168 1.73453,2.14702 4.99762,3.1935 7.54882,2.13671 l 50.53321,-20.93359 c 2.55121,-1.05679 3.61902,-3.91768 2.26172,-6.32226 -4.14515,-7.34354 -9.10948,-14.19375 -14.79883,-20.41797 -1.86291,-2.03807 -3.69675,-3.85301 -3.61133,-3.76758 l -3.61914,-3.44727 c -6.18132,-5.62787 -12.976,-10.543197 -20.25586,-14.652341 -0.67629,-0.381733 -1.39004,-0.572493 -2.08789,-0.591797 z"
       style="fill:#575757;stroke:none;stroke-width:51.3373;stop-color:#575757" />
    <path
       id="path543"
       transform="scale(0.26458333)"
       d="m 136.49023,91.294922 c -0.77142,-0.02064 -1.56692,0.165687 -2.31835,0.589844 -7.34353,4.145144 -14.19376,9.111424 -20.41797,14.800784 -2.03807,1.86291 -3.85301,3.6948 -3.76758,3.60937 l -3.44727,3.61914 c -5.62785,6.18132 -10.543201,12.976 -14.652341,20.25586 -1.357278,2.40458 -0.291423,5.26548 2.259765,6.32227 l 50.533206,20.93359 c 2.55121,1.05679 5.81633,0.0104 7.55078,-2.13672 1.65605,-2.05009 3.25429,-3.62777 3.34375,-3.71679 3.71639,-3.34256 3.71621,-3.34133 3.7168,-3.3418 2.14702,-1.73454 3.19351,-4.99957 2.13671,-7.55078 L 140.49414,94.146484 c -0.72655,-1.753947 -2.30678,-2.806158 -4.00391,-2.851562 z"
       style="fill:#575757;stroke:none;stroke-width:51.3373;stop-color:#575757" />
    <path
       id="path541"
       transform="scale(0.26458333)"
       d="m 188.75781,77.486328 -4.99804,0.121094 c -8.35035,0.391355 -16.63036,1.720857 -24.6836,3.96289 -2.66003,0.740554 -3.9278,3.517122 -2.87109,6.06836 l 20.92969,50.535158 c 1.05671,2.55124 4.10493,4.11993 6.84961,3.82812 2.62063,-0.27862 4.86598,-0.26397 4.99218,-0.26367 4.99143,0.26434 4.99144,0.2636 4.99219,0.26367 2.74468,0.29167 5.7929,-1.27688 6.84961,-3.82812 l 20.92969,-50.535158 c 1.0567,-2.551238 -0.21104,-5.327822 -2.8711,-6.06836 -8.12371,-2.261596 -16.47817,-3.594454 -24.90234,-3.972656 -2.75841,-0.123855 -5.33761,-0.111328 -5.2168,-0.111328 z"
       style="fill:#575757;stroke:none;stroke-width:51.3373;stop-color:#575757" />
    <path
       id="path539"
       transform="scale(0.26458333)"
       d="m 113.52344,36.996094 c -0.63258,0.03198 -1.27385,0.197792 -1.88867,0.511718 -14.357356,7.330716 -27.598558,16.666109 -39.328129,27.72461 -2.009178,1.894235 -3.801822,3.697259 -4.064453,3.960937 l -3.46875,3.59961 C 53.915025,84.401621 44.736317,97.476018 37.507812,111.63281 c -1.255723,2.45929 -0.139146,5.34178 2.41211,6.39844 l 29.234375,12.10937 c 2.55126,1.05666 5.601324,-0.0993 6.919922,-2.52539 5.092626,-9.36986 11.334287,-18.06998 18.576172,-25.89843 1.875087,-2.026945 5.041304,-5.193377 7.068359,-7.068362 7.82886,-7.241602 16.52821,-13.481975 25.89844,-18.574219 2.42611,-1.318466 3.58216,-4.368711 2.52539,-6.919922 L 118.0332,39.921875 c -0.79256,-1.913422 -2.61202,-3.02173 -4.50976,-2.925781 z"
       style="fill:#575757;stroke:none;stroke-width:51.3373;stop-color:#575757" />
    <path
       id="path537"
       transform="scale(0.26458333)"
       d="m 264.19336,36.990234 c -1.1807,0.0019 -2.31647,0.466538 -3.17383,1.298828 -0.45698,0.444152 -0.83545,0.993027 -1.09961,1.63086 l -12.10937,29.234375 c -1.05667,2.55126 0.0993,5.601332 2.52539,6.919922 9.36987,5.092633 18.06999,11.334294 25.89844,18.576172 2.02694,1.875095 5.19337,5.041304 7.06835,7.068359 7.24161,7.82885 13.48199,16.52822 18.57422,25.89844 1.31848,2.42612 4.36871,3.58216 6.91993,2.52539 L 338.0293,118.0332 c 2.55122,-1.05675 3.66974,-3.93914 2.41406,-6.39843 -7.33072,-14.357356 -16.66611,-27.598555 -27.72461,-39.328129 -1.89422,-2.009193 -3.69727,-3.801807 -3.96094,-4.064453 l -3.59961,-3.46875 C 293.54955,53.915014 280.47515,44.736317 266.31836,37.507812 c -0.69168,-0.353172 -1.41658,-0.518718 -2.125,-0.517578 z"
       style="fill:#575757;stroke:none;stroke-width:51.3373;stop-color:#575757" />
    <path
       id="path490"
       transform="scale(0.26458333)"
       d="m 188.30273,18.904297 -4.99804,0.09375 c -15.88662,0.530498 -31.62245,3.284555 -46.74414,8.183594 -2.62691,0.85105 -3.8752,3.679283 -2.81836,6.230468 l 12.10937,29.234375 c 1.05684,2.551185 4.03181,3.890525 6.67969,3.107422 10.22653,-3.024468 20.79093,-4.762965 31.44727,-5.177734 2.75915,-0.107377 7.23693,-0.107528 9.99609,0 10.65642,0.415253 21.22076,2.154701 31.44727,5.179687 2.64781,0.783228 5.62295,-0.556192 6.67968,-3.107421 l 12.10742,-29.234376 c 1.05675,-2.551229 -0.19145,-5.37939 -2.81836,-6.230468 -15.33577,-4.96858 -31.30046,-7.730558 -47.41406,-8.205078 -2.76013,-0.08128 -5.30167,-0.07496 -5.67383,-0.07422 z"
       style="fill:#575757;stroke:none;stroke-width:51.3373;stop-color:#575757" />
  </g>
</svg>
