<?xml version="1.0" encoding="utf-8"?>
<!-- Generator: Adobe Illustrator 23.0.4, SVG Export Plug-In . SVG Version: 6.00 Build 0)  -->
<svg version="1.1" id="svg" xmlns="http://www.w3.org/2000/svg" xmlns:xlink="http://www.w3.org/1999/xlink" x="0px" y="0px"
	 viewBox="0 0 213.8 341.3" style="enable-background:new 0 0 213.8 341.3;" xml:space="preserve">
<style type="text/css">
	.st0{fill-rule:evenodd;clip-rule:evenodd;}
</style>
<g id="svgg">
	<path id="path0" class="st0" d="M92.1,16.6l-0.2,16.6L74.1,23C64.2,17.3,56,12.7,55.7,12.7c-0.4,0-14.7,24.3-15.3,26
		c-0.1,0.3,7.6,5,17.1,10.5c9.5,5.4,17.4,10.1,17.4,10.3c0,0.2-7.4,4.6-16.5,9.8c-9.1,5.2-16.9,9.8-17.4,10.1
		c-0.8,0.5,0.2,2.5,4.6,10.2c10.5,18.2,9.9,17.3,11.6,16.3c0.8-0.5,9-5.3,18.3-10.6l16.8-9.7v21.2v21.2l-3.8,0.5
		C39.6,134.4,0,181.7,0,234c0,95.8,115.4,143.4,182.9,75.3c59.8-60.2,28.1-163.8-55.3-180.5l-6.3-1.3l-0.2-21.2l-0.2-21.2l3.5,2
		c1.9,1.1,10.3,5.9,18.5,10.7c8.2,4.8,15,8.6,15.1,8.5c0.7-0.7,14.9-25.9,14.9-26.4c0-0.4-7.8-5.1-17.4-10.6l-17.4-10l3.9-2.3
		c2.1-1.2,10.1-5.8,17.7-10.2l13.8-7.9l-1.2-2c-0.7-1.1-4.1-7.1-7.7-13.2c-3.6-6.1-6.7-11.2-6.9-11.2s-8.5,4.7-18.4,10.3
		c-9.9,5.7-18,10.3-18.2,10.3s-0.2-7.5-0.2-16.7V0h-14.3H92.3L92.1,16.6 M120.7,157.7c61.2,10.8,84.7,87.3,40.4,131.4
		c-40.4,40.2-109.7,23.7-127.8-30.4C14.7,202.6,62.5,147.5,120.7,157.7"/>
</g>
</svg>
